<?xml version="1.0" standalone="no"?>
<!DOCTYPE svg PUBLIC "-//W3C//DTD SVG 1.1//EN" "http://www.w3.org/Graphics/SVG/1.1/DTD/svg11.dtd" >
<svg xmlns="http://www.w3.org/2000/svg">
<metadata></metadata>
<defs>
<font id="knockouthtfvnujuniormiddlewt" horiz-adv-x="1275" >
<font-face units-per-em="2048" ascent="1638" descent="-410" />
<missing-glyph horiz-adv-x="458" />
<glyph horiz-adv-x="2048" />
<glyph horiz-adv-x="2048" />
<glyph unicode="&#xd;" horiz-adv-x="2048" />
<glyph unicode=" "  horiz-adv-x="458" />
<glyph unicode="&#x09;" horiz-adv-x="458" />
<glyph unicode="&#xa0;" horiz-adv-x="458" />
<glyph unicode="!" horiz-adv-x="475" d="M127 827v537h223v-537l-78 -411h-67zM137 0v238h201v-238h-201z" />
<glyph unicode="&#x22;" horiz-adv-x="724" d="M82 918l90 446h227l-163 -446h-154zM389 918l125 446h229l-200 -446h-154z" />
<glyph unicode="#" horiz-adv-x="1406" d="M51 352v137h307l74 383h-317v140h342l69 352h156l-66 -352h304l67 352h158l-68 -352h281v-140h-307l-72 -383h315v-137h-342l-67 -352h-158l68 352h-306l-67 -352h-156l68 352h-283zM516 489h305l72 383h-305z" />
<glyph unicode="$" horiz-adv-x="1183" d="M102 362v74h211v-35q0 -118 81.5 -186t205.5 -68q122 0 187 59.5t65 147.5q0 59 -39.5 105t-102 77.5t-138.5 61.5t-152.5 64.5t-139 77t-102 109.5t-39.5 152q0 152 95.5 259.5t265.5 134.5v198h198v-196q177 -27 273 -134t96 -264v-47h-211v15q0 105 -66 176t-192 71 q-113 0 -176.5 -52t-63.5 -136q0 -46 30.5 -83.5t80.5 -63.5t114 -54t130.5 -53.5t130.5 -64t114 -83.5t80.5 -113.5t30.5 -152.5q0 -152 -100 -257.5t-271 -133.5v-196h-198v196q-180 25 -289 133t-109 262z" />
<glyph unicode="%" horiz-adv-x="1429" d="M86 946v199q0 119 70 188.5t184 69.5q115 0 185.5 -69.5t70.5 -188.5v-199q0 -120 -70.5 -190t-185.5 -70q-114 0 -184 70t-70 190zM172 20l1004 1395l96 -72l-1004 -1394zM238 915q0 -47 27.5 -74.5t74.5 -27.5q46 0 74 27.5t28 74.5v261q0 47 -28 75.5t-74 28.5 q-47 0 -74.5 -28.5t-27.5 -75.5v-261zM848 221v199q0 119 71 189.5t185 70.5q115 0 185.5 -70.5t70.5 -189.5v-199q0 -120 -70.5 -190t-185.5 -70q-114 0 -185 70t-71 190zM999 190q0 -47 29 -75.5t76 -28.5q46 0 74 28.5t28 75.5v261q0 47 -28 74.5t-74 27.5 q-48 0 -76.5 -27.5t-28.5 -74.5v-261z" />
<glyph unicode="&#x26;" horiz-adv-x="1437" d="M88 319q0 129 82.5 239t228.5 185q-65 151 -65 275q0 167 99.5 276t271.5 109q157 0 242 -91t85 -233q0 -129 -99 -233t-274 -176q94 -180 226 -328q74 88 126 197t64 182l174 -33q-12 -102 -74 -228t-155 -243q96 -74 151 -74q33 0 53.5 20.5t20.5 51.5v96h170v-102 q0 -123 -61 -185.5t-178 -62.5q-65 0 -144 34.5t-155 96.5q-77 -60 -177 -95.5t-204 -35.5q-183 0 -295.5 102t-112.5 256zM307 344q0 -94 63.5 -145.5t180.5 -51.5q51 0 103 19.5t91 48.5q-146 152 -270 371q-168 -91 -168 -242zM539 1022q0 -87 51 -211q127 60 186.5 131 t59.5 137q0 62 -33.5 103t-97.5 41q-75 0 -120.5 -55t-45.5 -146z" />
<glyph unicode="'" horiz-adv-x="454" d="M106 918l97 446h254l-201 -446h-150z" />
<glyph unicode="(" horiz-adv-x="770" d="M195 610q0 291 146.5 558.5t414.5 451.5l55 -68q-183 -178 -292 -419.5t-109 -522.5t109 -521.5t292 -418.5l-55 -69q-270 183 -415.5 450t-145.5 559z" />
<glyph unicode=")" horiz-adv-x="770" d="M-41 -330q183 178 292 418.5t109 521.5t-109 522.5t-292 419.5l55 68q270 -183 415.5 -450.5t145.5 -559.5t-145.5 -559t-415.5 -450z" />
<glyph unicode="*" horiz-adv-x="765" d="M85 1140q-5 11 1 25l45 80q7 11 21 12t22 -6q90 -56 162 -125q-29 113 -29 203q0 14 7.5 24.5t21.5 10.5h90q29 0 29 -35q0 -90 -27 -201q71 69 162 127q30 13 43 -8l45 -78q13 -25 -14 -43q-75 -43 -189 -75q113 -33 189 -78q29 -17 16 -43l-45 -78q-13 -23 -43 -8 q-91 56 -162 127q29 -113 29 -205q0 -14 -7.5 -24.5t-21.5 -10.5h-90q-14 0 -21.5 10.5t-7.5 24.5q0 90 27 203q-82 -82 -162 -127q-8 -7 -22 -6t-21 12l-45 80q-6 14 -1 25t15 16q76 43 189 78q-113 33 -191 77q-10 5 -15 16z" />
<glyph unicode="+" horiz-adv-x="870" d="M100 604v170h248v266h176v-266h246v-170h-246v-264h-176v264h-248z" />
<glyph unicode="," horiz-adv-x="489" d="M90 -162q68 0 107 43.5t39 118.5h-93v240h203v-213q0 -111 -63 -183.5t-193 -72.5v67z" />
<glyph unicode="-" horiz-adv-x="737" d="M92 528v177h553v-177h-553z" />
<glyph unicode="." horiz-adv-x="489" d="M143 0v240h203v-240h-203z" />
<glyph unicode="/" horiz-adv-x="690" d="M31 -168l487 1661h156l-488 -1661h-155z" />
<glyph unicode="0" horiz-adv-x="1218" d="M111 436v492q0 205 135 340t364 135t363.5 -135t134.5 -340v-492q0 -204 -135 -339.5t-363 -135.5q-115 0 -209.5 37t-157.5 101.5t-97.5 151t-34.5 185.5zM328 428q0 -116 73.5 -194t208.5 -78t209 78.5t74 193.5v508q0 117 -74 195.5t-209 78.5t-208.5 -78.5 t-73.5 -195.5v-508z" />
<glyph unicode="1" horiz-adv-x="573" d="M178 0v1260q55 0 81 29.5t26 74.5h112v-1364h-219z" />
<glyph unicode="2" horiz-adv-x="1081" d="M82 0v90q0 93 24.5 173.5t65.5 140t94.5 111t112.5 92t117.5 77.5t112 72.5t94.5 72.5t65.5 82.5t24.5 96.5q0 93 -62 152t-178 59q-100 0 -156.5 -58.5t-56.5 -167.5v-71h-211v86q0 80 28 151t80 125.5t133.5 86.5t182.5 32q110 0 198 -32.5t142 -87.5t82.5 -124 t28.5 -145q0 -80 -35 -150.5t-91.5 -123.5t-125.5 -102t-141 -96.5t-133.5 -96.5t-106.5 -111.5t-58 -132.5h680v-201h-911z" />
<glyph unicode="3" horiz-adv-x="1079" d="M106 342v86h211v-49q0 -234 234 -234q114 0 171.5 57.5t57.5 155.5v66q0 83 -56 133.5t-181 50.5h-115v170h115q121 0 179 51.5t58 133.5v43q0 99 -58.5 156t-170.5 57q-110 0 -172 -60t-62 -174v-29h-211v66q0 163 122.5 272t314.5 109q210 0 329 -106.5t119 -272.5v-35 q0 -109 -61.5 -187.5t-177.5 -99.5q117 -27 178 -99t61 -179v-82q0 -164 -119.5 -272.5t-328.5 -108.5q-192 0 -314.5 109t-122.5 272z" />
<glyph unicode="4" horiz-adv-x="1085" d="M43 332v153l643 879h172v-848h178v-184h-178v-332h-199v332h-616zM287 516h372v522z" />
<glyph unicode="5" horiz-adv-x="1107" d="M117 342v45h211v-8q0 -234 227 -234q252 0 252 232v160q0 98 -57 151t-166 53q-171 0 -285 -163l-170 43l47 743h830q-9 -108 -50 -151.5t-147 -43.5h-455l-28 -387q116 133 313 133q181 0 281 -97t100 -255v-196q0 -181 -126.5 -293.5t-340.5 -112.5q-191 0 -313.5 109 t-122.5 272z" />
<glyph unicode="6" horiz-adv-x="1144" d="M115 434v473q0 220 135 358t356 138q194 0 322.5 -103.5t128.5 -279.5v-33h-211v19q0 93 -67.5 153t-176.5 60q-138 0 -207 -78.5t-69 -218.5v-222q144 172 344 172q178 0 282.5 -106t104.5 -268v-115q0 -185 -122.5 -303.5t-336.5 -118.5q-222 0 -352.5 130.5 t-130.5 342.5zM330 401q3 -110 76 -184t190 -74q115 0 183.5 60t68.5 155v111q0 107 -62.5 173.5t-179.5 66.5q-106 0 -177.5 -56.5t-98.5 -140.5v-111z" />
<glyph unicode="7" horiz-adv-x="1038" d="M72 1169v195h946v-152q-243 -304 -375 -592t-154 -620h-231q15 276 162 596t364 573h-712z" />
<glyph unicode="8" horiz-adv-x="1161" d="M109 334v72q0 101 58.5 177t156.5 107q-95 32 -149 108t-54 177v53q0 166 120.5 270.5t340.5 104.5t339 -104.5t119 -270.5v-53q0 -101 -53 -175t-149 -108q98 -29 156.5 -106.5t58.5 -179.5v-72q0 -166 -125 -269.5t-346 -103.5t-347 104t-126 269zM315 354 q0 -99 72 -155t195 -56q121 0 192.5 56t71.5 155v58q0 80 -69.5 141t-194.5 61q-126 0 -196.5 -61t-70.5 -141v-58zM322 965q0 -80 68.5 -141.5t191.5 -61.5q122 0 190 61.5t68 141.5v47q0 96 -69 153.5t-189 57.5q-122 0 -191 -57.5t-69 -153.5v-47z" />
<glyph unicode="9" horiz-adv-x="1167" d="M111 344v41h211v-27q0 -99 68.5 -157t180.5 -58q140 0 204.5 77.5t64.5 213.5v223q-61 -73 -139 -114t-189 -41q-187 0 -294 106t-107 269v100q0 185 123.5 305.5t336.5 120.5q227 0 354.5 -128.5t127.5 -346.5v-477q0 -220 -125.5 -355t-360.5 -135q-126 0 -227.5 42 t-165 130.5t-63.5 210.5zM319 909q0 -113 64 -174t186 -61q107 0 174 49.5t95 132.5v109q0 107 -73 180.5t-194 73.5q-120 0 -186 -60.5t-66 -167.5v-82z" />
<glyph unicode=":" horiz-adv-x="489" d="M143 0v240h203v-240h-203zM143 672v239h203v-239h-203z" />
<glyph unicode=";" horiz-adv-x="489" d="M90 -162q68 0 107 43.5t39 118.5h-93v240h203v-213q0 -111 -63 -183.5t-193 -72.5v67zM143 672v239h203v-239h-203z" />
<glyph unicode="&#x3c;" horiz-adv-x="1075" d="M113 653v60l794 508v-215l-514 -324l514 -324v-215z" />
<glyph unicode="=" horiz-adv-x="874" d="M100 414v184h674v-184h-674zM100 782v183h674v-183h-674z" />
<glyph unicode="&#x3e;" horiz-adv-x="1075" d="M168 143v215l514 324l-514 324v215l795 -510v-60z" />
<glyph unicode="?" horiz-adv-x="983" d="M57 954v64q0 161 119.5 273t312.5 112q109 0 195 -30t138 -81.5t79 -117t27 -140.5q0 -69 -22.5 -126.5t-58.5 -97t-79.5 -74t-87 -65.5t-79.5 -63.5t-58.5 -75.5t-22.5 -94h-172q0 68 20 124.5t51.5 95.5t70 72.5t77.5 64.5t70.5 62.5t51.5 74.5t20 94q0 94 -57 143.5 t-167 49.5q-103 0 -162 -62.5t-59 -171.5v-31h-207zM328 0v238h202v-238h-202z" />
<glyph unicode="@" horiz-adv-x="1560" d="M86 680q0 148 55 281t150 230.5t229.5 154.5t286.5 57q137 0 252.5 -39t192 -102.5t131 -145t78.5 -164.5t24 -164q0 -90 -27 -173.5t-77.5 -150t-129 -106t-174.5 -39.5q-80 0 -137.5 50.5t-56.5 124.5q-100 -154 -238 -154q-97 0 -155 64.5t-58 170.5q0 72 30.5 151 t81.5 145t123.5 108.5t149.5 42.5q68 0 109.5 -34.5t50.5 -92.5l39 113h162l-144 -424q-27 -68 -5 -113t89 -45q105 0 177.5 98t72.5 262q0 226 -157.5 369t-403.5 143q-175 0 -314 -83t-214.5 -223.5t-75.5 -309.5q0 -176 75.5 -316t214 -220t314.5 -80q243 0 410 151 l67 -82q-200 -174 -477 -174q-204 0 -369 93t-258.5 258t-93.5 368zM602 582q0 -59 30.5 -93t76.5 -34q114 0 174 178l57 168q0 53 -22.5 88t-73.5 35q-69 0 -126 -56.5t-86.5 -134t-29.5 -151.5z" />
<glyph unicode="A" horiz-adv-x="1177" d="M18 0l455 1364h225l461 -1364h-233l-111 348h-463l-106 -348h-228zM410 530h346l-176 547z" />
<glyph unicode="B" horiz-adv-x="1210" d="M145 0v1364h547q207 0 304.5 -90.5t97.5 -251.5v-41q0 -119 -57 -191t-167 -92q122 -21 182 -95.5t60 -184.5v-74q0 -162 -100 -253t-307 -91h-560zM373 188h336q91 0 131.5 44t40.5 116v72q0 180 -195 180h-313v-412zM373 770h305q97 0 145.5 47t48.5 133v62 q0 162 -174 162h-325v-404z" />
<glyph unicode="C" horiz-adv-x="1210" d="M109 473v414q0 84 21.5 160t65.5 141t107.5 113t151.5 75t192 27q220 0 353 -120.5t133 -297.5v-94h-224v76q0 113 -69 175t-193 62q-151 0 -231 -83t-80 -220v-442q0 -134 81.5 -216.5t233.5 -82.5q123 0 188.5 62.5t65.5 176.5v76h223v-94q0 -178 -131 -299t-354 -121 q-130 0 -233.5 41t-168 112.5t-98.5 163t-34 195.5z" />
<glyph unicode="D" d="M145 0v1364h508q124 0 223 -36.5t162 -100.5t96 -148t33 -182v-430q0 -98 -33 -182t-96 -148t-162 -100.5t-223 -36.5h-508zM371 201h268q147 0 225 75.5t78 206.5v396q0 133 -78 208.5t-225 75.5h-268v-962z" />
<glyph unicode="E" horiz-adv-x="1089" d="M145 0v1364h863v-201h-637v-356h471v-189h-471v-417h637v-201h-863z" />
<glyph unicode="F" horiz-adv-x="1048" d="M145 0v1364h852v-199h-626v-393h475v-192h-475v-580h-226z" />
<glyph unicode="G" horiz-adv-x="1255" d="M109 469v420q0 105 35 197t101 163t170 112.5t234 41.5q221 0 359.5 -121t138.5 -297v-53h-223v35q0 111 -74.5 174t-200.5 63q-151 0 -232 -85.5t-81 -213.5v-448q0 -127 81.5 -212t227.5 -85q130 0 205.5 76t75.5 186v104h-269v189h490v-715h-125l-37 137 q-56 -84 -151 -130t-218 -46q-124 0 -222 40.5t-159.5 111t-93.5 161.5t-32 195z" />
<glyph unicode="H" horiz-adv-x="1325" d="M145 0v1364h226v-578h583v578h228v-1364h-228v592h-583v-592h-226z" />
<glyph unicode="I" horiz-adv-x="516" d="M145 0v1364h226v-1364h-226z" />
<glyph unicode="J" horiz-adv-x="1103" d="M66 383v117h223v-99q0 -123 61 -182t170 -59q112 0 165.5 60t53.5 181v963h228v-956q0 -97 -26 -177t-78.5 -141t-138.5 -95t-200 -34q-219 0 -338.5 111.5t-119.5 310.5z" />
<glyph unicode="K" horiz-adv-x="1212" d="M145 0v1364h226v-655l544 655h261l-508 -598q21 -19 148.5 -210.5t244.5 -373.5l117 -182h-263l-393 604l-151 -168v-436h-226z" />
<glyph unicode="L" horiz-adv-x="1060" d="M145 0v1364h226v-1163h649v-201h-875z" />
<glyph unicode="M" horiz-adv-x="1640" d="M145 0v1364h314l299 -877l65 -219l64 219l295 877h313v-1364h-209v1067l-67 -221l-306 -846h-192l-301 846l-68 221v-1067h-207z" />
<glyph unicode="N" horiz-adv-x="1316" d="M145 0v1364h187l502 -752l120 -192v944h217v-1364h-167l-517 741l-125 195v-936h-217z" />
<glyph unicode="O" d="M109 471v422q0 107 34 198.5t99 161.5t167 110t230 40t229.5 -40t166 -110t98.5 -161.5t34 -198.5v-422q0 -106 -34 -197.5t-98.5 -162t-166 -110.5t-229.5 -40t-230 40.5t-167 110.5t-99 161.5t-34 197.5zM338 463q0 -134 78 -218.5t223 -84.5t223 84.5t78 218.5v438 q0 135 -78 219t-223 84t-223 -84t-78 -219v-438z" />
<glyph unicode="P" horiz-adv-x="1171" d="M145 0v1364h529q217 0 320.5 -100t103.5 -271v-100q0 -169 -103.5 -268t-320.5 -99h-303v-526h-226zM371 715h317q180 0 180 176v106q0 83 -43 127.5t-141 44.5h-313v-454z" />
<glyph unicode="Q" horiz-adv-x="1286" d="M109 471v422q0 107 34 198.5t99 161.5t167 110t230 40t229.5 -40t166 -110t98.5 -161.5t34 -198.5v-422q0 -180 -94 -313q68 -54 162 -54v-139q-56 -26 -129 -26q-99 0 -193 84q-118 -62 -274 -62q-128 0 -230 40.5t-167 110.5t-99 161.5t-34 197.5zM338 463 q0 -134 78 -218.5t223 -84.5q70 0 123 20l-168 164l151 125l160 -158q35 62 35 152v438q0 135 -78 219t-223 84t-223 -84t-78 -219v-438z" />
<glyph unicode="R" horiz-adv-x="1224" d="M145 0v1364h529q219 0 321.5 -92t102.5 -254v-68q0 -120 -55.5 -190t-186.5 -94q126 -13 184 -87.5t58 -181.5l2 -184q0 -41 16 -63.5t55 -34.5v-127h-90q-114 0 -160.5 48.5t-48.5 160.5l-2 200q-2 91 -47.5 137t-154.5 46h-297v-580h-226zM371 745h301q97 0 146.5 47.5 t49.5 135.5v84q0 73 -43 117.5t-141 44.5h-313v-429z" />
<glyph unicode="S" horiz-adv-x="1161" d="M78 360v74h223v-31q0 -125 84 -186t221 -61q117 0 178.5 57t61.5 149q0 61 -41.5 106t-107.5 73t-146 53t-160 56.5t-146 72.5t-107.5 111t-41.5 163q0 82 33 155.5t93.5 129.5t152.5 88.5t203 32.5q226 0 363.5 -115t137.5 -284v-60h-223v31q0 102 -75 167.5t-206 65.5 q-116 0 -183.5 -53.5t-67.5 -138.5q0 -46 25.5 -82.5t69 -61t100 -46t119 -41.5t124.5 -42.5t118.5 -54t100 -71t69 -98.5t25.5 -132q0 -186 -129 -306t-354 -120q-239 0 -376.5 110.5t-137.5 288.5z" />
<glyph unicode="T" horiz-adv-x="1120" d="M49 1163v201h1022v-201h-397v-1163h-228v1163h-397z" />
<glyph unicode="U" horiz-adv-x="1298" d="M137 414v950h230v-938q0 -129 71 -199.5t213 -70.5q144 0 213.5 70t69.5 200v938h227v-950q0 -206 -137 -329.5t-377 -123.5q-237 0 -373.5 122.5t-136.5 330.5z" />
<glyph unicode="V" horiz-adv-x="1208" d="M27 1364h241l344 -1067l340 1067h238l-483 -1364h-205z" />
<glyph unicode="W" horiz-adv-x="1744" d="M27 1364h237l236 -1032l282 1032h203l277 -1032l237 1032h230l-367 -1364h-217l-266 987l-277 -987h-217z" />
<glyph unicode="X" horiz-adv-x="1200" d="M51 0l432 694l-417 670h253l295 -508l293 508h246l-416 -668l432 -696h-254l-311 526l-309 -526h-244z" />
<glyph unicode="Y" horiz-adv-x="1136" d="M-2 1364h254l330 -627l321 627h240l-455 -813v-551h-227v551z" />
<glyph unicode="Z" horiz-adv-x="1161" d="M74 0v88l700 1075h-665v201h981v-88l-695 -1075h678v-201h-999z" />
<glyph unicode="[" horiz-adv-x="731" d="M238 -365v1952h493v-168h-305v-1616h305v-168h-493z" />
<glyph unicode="\" horiz-adv-x="686" d="M23 1493h155l488 -1659h-156z" />
<glyph unicode="]" horiz-adv-x="731" d="M0 -197h307v1616h-307v168h496v-1952h-496v168z" />
<glyph unicode="^" horiz-adv-x="722" d="M47 1098v59q75 0 131 52t86 155h197q30 -102 87 -154.5t132 -52.5v-59q-56 -17 -107 -17q-76 0 -134.5 51.5t-80.5 133.5q-22 -81 -81.5 -133t-137.5 -52q-39 0 -92 17z" />
<glyph unicode="_" horiz-adv-x="923" d="M8 0h910v-170h-910v170z" />
<glyph unicode="`" horiz-adv-x="466" d="M59 1419h224l96 -297h-129z" />
<glyph unicode="a" horiz-adv-x="999" d="M80 252v10q0 89 48 152t132 95q85 31 186 43q63 7 133 8q42 0 87 -3v96q0 77 -43 119.5t-125 42.5q-189 0 -189 -143v-4h-182v10q0 129 96.5 215t268.5 86q191 0 280.5 -97.5t89.5 -265.5v-417q0 -35 19 -50.5t65 -15.5v-149h-69q-73 0 -118 35t-44 114 q-57 -70 -143 -109.5t-183 -39.5q-139 0 -224 72.5t-85 195.5zM279 262q0 -51 40 -86t107 -35q90 0 165 49t75 121v121q-44 3 -83 3q-304 0 -304 -167v-6z" />
<glyph unicode="b" horiz-adv-x="1046" d="M131 0v1364h205v-553q47 79 125 123.5t178 44.5q144 0 227.5 -101.5t83.5 -256.5v-275q0 -160 -96.5 -261t-249.5 -101q-102 0 -187 45t-120 135l-41 -164h-125zM338 352q0 -101 62.5 -159t146.5 -58q96 0 148.5 57.5t52.5 172.5v223q0 115 -51.5 173t-147.5 58 q-94 0 -152.5 -61.5t-58.5 -163.5v-242z" />
<glyph unicode="c" horiz-adv-x="960" d="M98 375v207q0 178 114 287.5t296 109.5q169 0 273 -92t104 -258v-6h-183v24q0 75 -53 122.5t-139 47.5q-96 0 -153.5 -58.5t-57.5 -160.5v-231q0 -106 57.5 -164t153.5 -58q83 0 137.5 47.5t54.5 124.5v25h183v-8q0 -165 -106 -257.5t-273 -92.5q-185 0 -296.5 106.5 t-111.5 284.5z" />
<glyph unicode="d" horiz-adv-x="1036" d="M98 344v260q0 162 97.5 268.5t238.5 106.5q98 0 162 -31.5t117 -99.5v516h205v-1364h-146l-18 164q-38 -89 -121.5 -134.5t-183.5 -45.5q-157 0 -254 100t-97 260zM301 365q0 -113 53 -170.5t148 -57.5q88 0 148.5 58t60.5 159v244q0 101 -56.5 162t-152.5 61t-148.5 -58 t-52.5 -171v-227z" />
<glyph unicode="e" horiz-adv-x="974" d="M98 369v219q0 175 108 283t294 108q185 0 288 -107.5t103 -285.5v-119h-592v-131q0 -86 58 -139.5t159 -53.5q90 0 141.5 44t51.5 110v20h182v-4q0 -151 -110.5 -240t-276.5 -89q-185 0 -295.5 104t-110.5 281zM299 573h403v62q0 79 -54.5 131.5t-145.5 52.5 q-93 0 -148 -51.5t-55 -132.5v-62z" />
<glyph unicode="f" horiz-adv-x="632" d="M55 793v157h150v64q0 165 82.5 260.5t244.5 95.5h82v-162h-59q-80 0 -114.5 -43t-34.5 -127v-88h194v-157h-186v-793h-209v793h-150z" />
<glyph unicode="g" horiz-adv-x="987" d="M57 -88q0 65 53 115t162 71q-93 19 -137.5 59.5t-44.5 94.5q0 59 54 109.5t132 62.5q-74 33 -113.5 98t-39.5 146v6q0 129 108.5 217t264.5 88q35 0 69.5 -4.5t52.5 -9t42.5 -11.5t27.5 -8q12 -1 23 -1q55 0 78 29q28 34 28 101h146q10 -53 10 -94q0 -71 -35 -102 t-82 -31q-51 0 -78 14q94 -73 94 -186v-14q0 -132 -102 -212.5t-274 -80.5q-19 0 -62.5 5t-56.5 9q-53 0 -85 -25.5t-32 -56.5q0 -42 64 -63t231 -21q209 0 304 -62.5t95 -170.5v-17q0 -121 -123 -211t-337 -90q-189 0 -313 65t-124 171v10zM248 -49v-10q0 -53 62 -86 t188 -33q128 0 195 38t67 93v8q0 54 -51.5 81.5t-180.5 27.5q-144 0 -212 -33.5t-68 -85.5zM307 670q0 -68 50.5 -115t138.5 -47q89 0 138.5 46.5t49.5 115.5v6q0 69 -49.5 115.5t-138.5 46.5q-88 0 -138.5 -47t-50.5 -115v-6z" />
<glyph unicode="h" horiz-adv-x="1056" d="M131 0v1364h207v-608q47 111 132.5 167t184.5 56q129 0 205 -89.5t76 -232.5v-657h-209v647q0 84 -41.5 130t-116.5 46q-64 0 -119.5 -50.5t-83.5 -117t-28 -125.5v-530h-207z" />
<glyph unicode="i" horiz-adv-x="471" d="M131 0v958h209v-958h-209zM166 1063v137h139v-137h-139z" />
<glyph unicode="j" horiz-adv-x="471" d="M-49 -176h37q87 0 115 30.5t28 100.5v1003h209v-966q0 -151 -71 -232.5t-234 -81.5h-84v146zM166 1063v137h139v-137h-139z" />
<glyph unicode="k" horiz-adv-x="980" d="M127 0v1364h205v-885l373 479h217l-310 -395l342 -563h-217l-250 428l-155 -188v-240h-205z" />
<glyph unicode="l" horiz-adv-x="466" d="M131 0v1364h207v-1364h-207z" />
<glyph unicode="m" horiz-adv-x="1501" d="M131 0v958h178l8 -215q103 236 301 236q88 0 147.5 -57t82.5 -152q53 111 122.5 160t166.5 49q117 0 179 -82t62 -221v-676h-209v666q0 157 -120 157q-48 0 -86.5 -31.5t-59.5 -79.5t-32 -96t-11 -90v-526h-209v666q0 157 -121 157q-48 0 -87 -31.5t-60 -79.5t-32 -96 t-11 -90v-526h-209z" />
<glyph unicode="n" horiz-adv-x="1069" d="M131 0v958h176l10 -247q114 268 332 268q141 0 219 -88.5t78 -233.5v-657h-209v647q0 85 -41 130.5t-118 45.5q-64 0 -121 -51t-87 -119t-30 -127v-526h-209z" />
<glyph unicode="o" horiz-adv-x="1013" d="M98 375v209q0 182 113 288.5t297 106.5q182 0 294.5 -106.5t112.5 -288.5v-209q0 -182 -112 -286.5t-295 -104.5q-184 0 -297 104.5t-113 286.5zM301 356q0 -99 54 -156t153 -57q97 0 151 57t54 156v250q0 98 -54 155.5t-151 57.5q-98 0 -152.5 -57.5t-54.5 -155.5v-250z " />
<glyph unicode="p" horiz-adv-x="1048" d="M131 -315v1273h145l19 -163q38 89 123.5 136.5t185.5 47.5q155 0 250.5 -101.5t95.5 -263.5v-284q0 -145 -94.5 -245.5t-226.5 -100.5q-100 0 -168 30t-125 99v-428h-205zM338 362q0 -101 59 -160t148 -59q97 0 148.5 58t51.5 172v225q0 111 -52 168t-148 57 q-88 0 -147.5 -58.5t-59.5 -164.5v-238z" />
<glyph unicode="q" horiz-adv-x="1042" d="M98 328v286q0 159 100 262t251 103q104 0 185.5 -45.5t119.5 -138.5l32 163h132v-1273h-205v454q-98 -155 -303 -155q-130 0 -221 99.5t-91 244.5zM301 375q0 -113 53.5 -172.5t147.5 -59.5q93 0 151 59.5t58 159.5v240q0 102 -59.5 161.5t-149.5 59.5q-96 0 -148.5 -57 t-52.5 -170v-221z" />
<glyph unicode="r" horiz-adv-x="698" d="M131 0v958h176l12 -208q51 142 131 189q56 32 137 32q37 0 79 -6v-195q-65 11 -117 11q-81 0 -129 -26q-80 -43 -80 -130v-625h-209z" />
<glyph unicode="s" horiz-adv-x="915" d="M72 293v33h182v-15q0 -89 59 -130.5t156 -41.5q91 0 137.5 32.5t46.5 92.5q0 45 -30.5 75t-79.5 46.5t-108 30.5t-118.5 33t-108.5 46.5t-79.5 78.5t-30.5 122q0 113 101.5 198t265.5 85q169 0 269 -83t100 -218v-19h-183v11q0 66 -49.5 107.5t-136.5 41.5 q-82 0 -130 -31t-48 -79q0 -36 24 -61.5t63 -39.5t88.5 -28.5t102 -26.5t102 -34t88.5 -51t63 -79t24 -115q0 -54 -24 -105t-69 -92.5t-118.5 -67t-165.5 -25.5q-175 0 -284 87t-109 222z" />
<glyph unicode="t" horiz-adv-x="645" d="M53 793v157h156v174l201 68v-242h180v-157h-180v-484q0 -188 86 -309h-228q-67 104 -67 309v484h-148z" />
<glyph unicode="u" horiz-adv-x="1067" d="M129 303v655h209v-643q0 -84 44 -130t122 -46q48 0 92.5 29t74 72.5t47 93t17.5 92.5v532h209v-958h-176l-10 219q-103 -235 -324 -235q-148 0 -226.5 86t-78.5 233z" />
<glyph unicode="v" horiz-adv-x="927" d="M20 958h216l161 -516l70 -227l70 227l159 516h211l-350 -958h-188z" />
<glyph unicode="w" horiz-adv-x="1370" d="M20 958h209l133 -542l44 -195l45 195l149 542h186l134 -542l45 -195l43 195l149 542h191l-297 -958h-174l-144 469l-49 190l-51 -190l-139 -469h-177z" />
<glyph unicode="x" horiz-adv-x="915" d="M31 0l331 475l-331 483h219l217 -340l217 340h215l-330 -475l330 -483h-217l-217 342l-219 -342h-215z" />
<glyph unicode="y" horiz-adv-x="927" d="M20 958h211l164 -516l70 -225l67 225l162 516h211l-332 -944q-19 -48 -32.5 -79t-31.5 -67.5t-34 -58.5t-37.5 -46t-44.5 -37.5t-52.5 -25.5t-64.5 -17t-77 -5h-84v150h69q53 0 86 12.5t49.5 34.5t32.5 62l17 49z" />
<glyph unicode="z" horiz-adv-x="888" d="M68 0v119l518 680h-498v159h735v-118l-514 -680h500v-160h-741z" />
<glyph unicode="{" horiz-adv-x="788" d="M176 543v139h76q86 0 120 25t34 84q0 41 -28.5 98.5t-62 109t-62 129t-28.5 152.5q0 133 86.5 220t251.5 87h101v-172h-93q-143 0 -143 -123q0 -56 22.5 -124t49 -120t49 -110.5t22.5 -99.5q0 -185 -204 -228q204 -43 204 -227q0 -41 -22.5 -99.5t-49 -110t-49 -119.5 t-22.5 -124q0 -58 36.5 -91.5t106.5 -33.5h93v-170h-101q-165 0 -251.5 87t-86.5 219q0 75 28.5 152.5t62 129.5t62 109t28.5 96q0 61 -34 88t-120 27h-76z" />
<glyph unicode="|" horiz-adv-x="397" d="M123 -166v1659h151v-1659h-151z" />
<glyph unicode="}" horiz-adv-x="788" d="M125 -195h94q70 0 106.5 33.5t36.5 91.5q0 56 -22.5 124t-50 119.5t-50 110t-22.5 99.5q0 89 51.5 147t153.5 80q-101 21 -153 80t-52 148q0 41 22.5 99.5t50 110.5t50 120t22.5 124q0 123 -143 123h-94v172h100q165 0 251.5 -87t86.5 -220q0 -62 -18.5 -123.5t-45 -110 t-53 -92.5t-45 -86.5t-18.5 -76.5q0 -60 34 -84.5t122 -24.5h73v-139h-73q-87 0 -121.5 -26.5t-34.5 -88.5q0 -39 28 -96t62 -109t62 -129.5t28 -152.5q0 -132 -86.5 -219t-251.5 -87h-100v170z" />
<glyph unicode="~" horiz-adv-x="745" d="M43 639q0 81 44.5 128.5t129.5 47.5q51 0 115 -31.5t118 -62.5t80 -31q48 0 48 58v69h98q29 -49 29 -94q0 -79 -46 -126.5t-131 -47.5q-50 0 -113.5 31.5t-117.5 62.5t-80 31q-45 0 -45 -58v-69h-98q-31 50 -31 92z" />
<glyph horiz-adv-x="428" d="M59 -162q68 0 107 43.5t39 118.5h-92v240h202v-213q0 -111 -63 -183.5t-193 -72.5v67z" />
<glyph horiz-adv-x="819" d="M100 616v172h209v213q0 172 82.5 270.5t241.5 98.5h86v-184h-41q-91 0 -125.5 -35t-34.5 -113v-250h221v-172h-221v-290q0 -174 -76.5 -269.5t-238.5 -95.5h-88v184h43q89 0 120 32.5t31 115.5v323h-209z" />
<glyph horiz-adv-x="731" d="M59 -162q68 0 107 43.5t39 118.5h-92v240h202v-213q0 -111 -63 -183.5t-193 -72.5v67zM367 -162q67 0 106 43.5t39 118.5h-92v240h203v-213q0 -111 -63 -183.5t-193 -72.5v67z" />
<glyph unicode="&#x85;" horiz-adv-x="1347" d="M143 0v240h203v-240h-203zM571 0v240h203v-240h-203zM999 0v240h203v-240h-203z" />
<glyph horiz-adv-x="927" d="M59 844v117q0 12 10.5 19t22.5 7q60 0 160 -6.5t154 -19.5q-13 49 -20 177.5t-7 192.5q0 12 7.5 22.5t19.5 10.5h116q14 0 21.5 -10.5t7.5 -22.5q0 -57 -7.5 -189t-19.5 -181q52 13 152 19.5t162 6.5q12 0 22 -7t10 -19v-117q0 -27 -32 -27q-56 0 -160.5 7t-155.5 20 q13 -49 21 -171t8 -179q0 -417 -23 -609q0 -32 -26 -32h-74q-14 0 -21.5 10t-7.5 22q-20 195 -20 609q0 55 7.5 177.5t19.5 172.5q-49 -13 -154 -20t-160 -7q-13 0 -23 6.5t-10 20.5z" />
<glyph horiz-adv-x="927" d="M59 256v117q0 26 33 26q51 0 157.5 -7t156.5 -19q-27 114 -27 235q0 122 27 236q-49 -13 -154 -20t-160 -7q-13 0 -23 6.5t-10 20.5v117q0 12 10.5 19t22.5 7q60 0 160 -6.5t154 -19.5q-13 49 -20 177.5t-7 192.5q0 12 7.5 22.5t19.5 10.5h116q14 0 21.5 -10.5t7.5 -22.5 q0 -57 -7.5 -189t-19.5 -181q52 13 152 19.5t162 6.5q12 0 22 -7t10 -19v-117q0 -27 -32 -27q-56 0 -160.5 7t-155.5 20q14 -51 21.5 -122.5t7.5 -113.5t-7.5 -113t-21.5 -122q51 12 157.5 19t158.5 7q32 0 32 -26v-117q0 -27 -32 -27q-60 0 -160.5 7t-153.5 20 q12 -51 19.5 -182.5t7.5 -188.5q0 -12 -7.5 -22t-21.5 -10h-116q-13 0 -20 10t-7 22q0 64 7 192.5t20 178.5q-54 -13 -155 -20t-159 -7q-13 0 -23 6.5t-10 20.5z" />
<glyph horiz-adv-x="722" d="M47 1145v59q75 0 131 52t86 155h197q30 -102 87 -154.5t132 -52.5v-59q-56 -17 -107 -17q-76 0 -134.5 51.5t-80.5 133.5q-22 -81 -81.5 -133t-137.5 -52q-39 0 -92 17z" />
<glyph horiz-adv-x="2041" d="M86 946v199q0 119 70 188.5t184 69.5q115 0 185.5 -69.5t70.5 -188.5v-199q0 -120 -70.5 -190t-185.5 -70q-114 0 -184 70t-70 190zM172 20l1004 1395l96 -72l-1004 -1394zM238 915q0 -47 27.5 -74.5t74.5 -27.5q46 0 74 27.5t28 74.5v261q0 47 -28 75.5t-74 28.5 q-47 0 -74.5 -28.5t-27.5 -75.5v-261zM848 221v199q0 119 71 189.5t185 70.5q115 0 185.5 -70.5t70.5 -189.5v-199q0 -120 -70.5 -190t-185.5 -70q-114 0 -185 70t-71 190zM999 190q0 -47 29 -75.5t76 -28.5q46 0 74 28.5t28 75.5v261q0 47 -28 74.5t-74 27.5 q-48 0 -76.5 -27.5t-28.5 -74.5v-261zM1466 221v199q0 119 71.5 189.5t186.5 70.5q114 0 184 -70.5t70 -189.5v-199q0 -120 -70 -190t-184 -70q-116 0 -187 70t-71 190zM1618 190q0 -47 29.5 -75.5t76.5 -28.5q45 0 74 28.5t29 75.5v261q0 46 -29 74t-74 28q-48 0 -77 -27.5 t-29 -74.5v-261z" />
<glyph horiz-adv-x="1161" />
<glyph horiz-adv-x="608" d="M70 334v149q119 29 209 126t122 208h115q0 -119 -65.5 -233.5t-176.5 -175.5q111 -61 176.5 -175t65.5 -233h-115q-32 111 -122 208t-209 126z" />
<glyph horiz-adv-x="1837" d="M109 494v374q0 219 145 357.5t403 138.5h1100v-201h-637v-356h471v-189h-471v-417h637v-201h-1100q-258 0 -403 138t-145 356zM336 504q0 -148 85 -227.5t245 -79.5h229v968h-229q-160 0 -245 -77t-85 -224v-360z" />
<glyph horiz-adv-x="1161" />
<glyph horiz-adv-x="413" d="M98 901v213q0 112 63 185t193 73v-67q-67 0 -105 -43.5t-38 -120.5h90v-240h-203z" />
<glyph horiz-adv-x="413" d="M57 895v66q67 0 106.5 44t39.5 119h-92v240h202v-211q0 -113 -63 -185.5t-193 -72.5z" />
<glyph horiz-adv-x="720" d="M98 901v213q0 112 63 185t193 73v-67q-67 0 -105 -43.5t-38 -120.5h90v-240h-203zM406 901v213q0 112 63 185t193 73v-67q-67 0 -105.5 -43.5t-38.5 -120.5h90v-240h-202z" />
<glyph horiz-adv-x="720" d="M57 895v66q67 0 106.5 44t39.5 119h-92v240h202v-211q0 -113 -63 -185.5t-193 -72.5zM365 895v66q67 0 106 44t39 119h-92v240h203v-211q0 -113 -63 -185.5t-193 -72.5z" />
<glyph horiz-adv-x="757" d="M92 682q0 131 80.5 211t206.5 80q125 0 206 -80.5t81 -210.5t-81 -210.5t-206 -80.5q-126 0 -206.5 80t-80.5 211z" />
<glyph horiz-adv-x="1142" d="M143 528v170h858v-170h-858z" />
<glyph horiz-adv-x="1730" d="M143 528v170h1422v-170h-1422z" />
<glyph horiz-adv-x="745" d="M43 1241q0 80 44.5 127t129.5 47q51 0 115 -31.5t118 -62.5t80 -31q48 0 48 58v69h98q29 -49 29 -92q0 -80 -45.5 -127t-131.5 -47q-50 0 -113.5 31.5t-117.5 62.5t-80 31q-45 0 -45 -57v-70h-98q-31 47 -31 92z" />
<glyph horiz-adv-x="1456" d="M68 1253v111h510v-111h-189v-512h-131v512h-190zM692 741v623h176l111 -340l39 -152l43 152l106 340h179v-623h-121v488l-45 -162l-109 -326h-110l-107 326l-45 162v-488h-117z" />
<glyph horiz-adv-x="915" />
<glyph horiz-adv-x="608" d="M94 0q0 119 65.5 233t176.5 175q-111 61 -176.5 175.5t-65.5 233.5h117q32 -111 121.5 -208t208.5 -126v-149q-119 -29 -208.5 -126t-121.5 -208h-117z" />
<glyph horiz-adv-x="1589" d="M96 371v221q0 173 113 280t280 107q106 0 189.5 -40.5t134.5 -115.5q48 75 129.5 116.5t187.5 41.5q170 0 272.5 -109.5t102.5 -285.5v-119h-594v-129q0 -87 58.5 -141t158.5 -54q91 0 143 44t52 110v20h182v-4q0 -151 -110.5 -240t-276.5 -89q-94 0 -176 41t-131 114 q-50 -74 -133.5 -114.5t-188.5 -40.5q-167 0 -280 106.5t-113 280.5zM301 346q0 -91 54.5 -148t150.5 -57t151.5 57t55.5 148v270q0 91 -55.5 148t-151.5 57t-150.5 -57t-54.5 -148v-270zM913 575h404v62q0 77 -56 130.5t-147 53.5q-93 0 -147 -52t-54 -132v-62z" />
<glyph horiz-adv-x="888" />
<glyph horiz-adv-x="1136" d="M-2 1364h254l330 -627l321 627h240l-455 -813v-551h-227v551zM309 1509v191h189v-191h-189zM643 1509v191h188v-191h-188z" />
<glyph unicode="&#xa1;" horiz-adv-x="475" d="M125 133l80 412h65l80 -412v-539h-225v539zM135 719v239h203v-239h-203z" />
<glyph unicode="&#xa2;" horiz-adv-x="970" d="M106 549v256q0 144 90 242.5t232 123.5v201h180v-203q132 -24 208.5 -112t76.5 -230v-6h-182v25q0 75 -53.5 122.5t-139.5 47.5q-93 0 -146 -53t-53 -138v-286q0 -87 53 -139t146 -52q83 0 138 47.5t55 124.5v25h182v-8q0 -141 -78 -231t-207 -116v-196h-180v194 q-144 25 -233 121.5t-89 239.5z" />
<glyph unicode="&#xa3;" horiz-adv-x="1290" d="M12 166q0 98 69 160.5t195 62.5q95 0 189 -63q49 52 49 127q0 34 -13 76t-36 71h-336v174h233q-73 128 -73 232q0 77 30 147t86 126.5t145 90t198 33.5q106 0 190.5 -33.5t135.5 -88.5t77.5 -122t26.5 -139v-74h-211v51q0 92 -62 157t-168 65q-105 0 -168 -59t-63 -163 q0 -101 90 -223h397v-174h-305q29 -82 29 -147q0 -58 -21 -109t-71 -113q133 -79 254 -79q77 0 103 32.5t26 100.5v127h211v-156q0 -138 -76.5 -216.5t-237.5 -78.5q-106 0 -209 33.5t-182 89.5q-116 -123 -266 -123q-105 0 -170.5 58.5t-65.5 146.5zM184 178 q0 -25 20.5 -41t59.5 -16q36 0 71 16.5t56 46.5q-73 56 -129 56q-37 0 -57.5 -17.5t-20.5 -44.5z" />
<glyph unicode="&#xa4;" horiz-adv-x="1208" d="M109 457v446q0 78 21 151t64.5 136.5t105.5 111t149 74.5t190 27q221 0 354 -120.5t133 -297.5v-59h-217v41q0 114 -68.5 176.5t-199.5 62.5q-152 0 -233.5 -81.5t-81.5 -206.5v-144h653v-184h-653v-146q0 -126 82 -206t237 -80q127 0 193.5 63.5t66.5 177.5v41h217v-59 q0 -178 -131.5 -299t-353.5 -121q-130 0 -233 41t-166 110.5t-96 157.5t-33 187z" />
<glyph unicode="&#xa5;" horiz-adv-x="1177" d="M39 1364h246l309 -580l299 580h242l-359 -616h283v-179h-363v-139h363v-180h-363v-250h-217v250h-368v180h368v139h-368v179h288z" />
<glyph unicode="&#xa7;" horiz-adv-x="1167" d="M106 33v45h211v-39q0 -98 74.5 -154.5t200.5 -56.5q125 0 188.5 38.5t63.5 108.5q0 48 -40 87t-104 67.5t-141 56t-154.5 60t-141.5 71t-104 97t-40 131.5q0 78 52 145t136 109q-168 93 -168 252q0 70 28.5 132t82.5 112t141 79t195 29q110 0 198.5 -31.5t142.5 -83.5 t82.5 -116t28.5 -132v-36h-211v28q0 74 -65 132.5t-176 58.5q-115 0 -172.5 -44.5t-57.5 -111.5q0 -42 39.5 -78.5t103 -65.5t139.5 -58.5t152.5 -64.5t140 -75.5t103 -100t39.5 -130.5q0 -174 -182 -254q82 -48 126 -106t44 -144q0 -144 -126.5 -242t-344.5 -98 q-228 0 -356 102t-128 281zM326 588q0 -24 6.5 -42.5t29.5 -39.5t46.5 -36.5t78.5 -42t104.5 -48t143.5 -60.5q63 12 101 50t38 88q0 70 -87 126t-318 148q-63 -13 -103 -54t-40 -89z" />
<glyph unicode="&#xa8;" horiz-adv-x="632" d="M55 1174v190h189v-190h-189zM389 1174v190h189v-190h-189z" />
<glyph unicode="&#xa9;" horiz-adv-x="1583" d="M72 682q0 147 55 280t149.5 230t229 154t285.5 57q153 0 287.5 -57t229 -154t149 -230t54.5 -280t-54.5 -280t-149 -230t-229 -154t-287.5 -57q-151 0 -285.5 57t-229 154t-149.5 230t-55 280zM186 682q0 -170 75.5 -311t215 -224.5t314.5 -83.5q176 0 316 83.5 t216 224.5t76 311t-76 311t-216 224t-316 83q-131 0 -245 -48.5t-192.5 -132t-123 -197t-44.5 -240.5zM541 578v208q0 102 72.5 169t191.5 67q109 0 177.5 -61t68.5 -162v-21h-133v10q0 125 -111 125q-61 0 -96 -35.5t-35 -95.5v-202q0 -60 33.5 -94.5t99.5 -34.5 q111 0 111 124v13h133v-23q0 -99 -69.5 -161t-178.5 -62q-120 0 -192 66.5t-72 169.5z" />
<glyph unicode="&#xaa;" horiz-adv-x="815" d="M86 836v8q0 66 35.5 113.5t97.5 72t137.5 33.5t163.5 4v84q0 111 -133 111q-61 0 -89 -33t-28 -88v-2h-145v10q0 105 72.5 172.5t199.5 67.5q149 0 217 -73t68 -200v-317q0 -26 14 -35.5t58 -9.5v-119h-64q-129 0 -129 115q-41 -55 -105 -85t-139 -30q-105 0 -168 54 t-63 147zM246 846q0 -38 27.5 -63t78.5 -25q65 0 116.5 35.5t51.5 91.5v92q-274 9 -274 -127v-4z" />
<glyph unicode="&#xab;" horiz-adv-x="1038" d="M70 334v149q119 29 209 126t122 208h115q0 -119 -65.5 -233.5t-176.5 -175.5q111 -61 176.5 -175t65.5 -233h-115q-32 111 -122 208t-209 126zM500 334v149q119 29 209 126t122 208h115q0 -119 -65 -233.5t-176 -175.5q111 -61 176 -175t65 -233h-115q-32 111 -122 208 t-209 126z" />
<glyph unicode="&#xac;" horiz-adv-x="897" d="M109 475l217 213l-217 217l127 123l215 -215l213 215l124 -121l-217 -215l217 -215l-126 -125l-216 217l-213 -217z" />
<glyph unicode="&#xad;" horiz-adv-x="737" d="M92 528v177h553v-177h-553z" />
<glyph unicode="&#xae;" horiz-adv-x="1583" d="M72 682q0 147 55 280t149.5 230t229 154t285.5 57q153 0 287.5 -57t229 -154t149 -230t54.5 -280t-54.5 -280t-149 -230t-229 -154t-287.5 -57q-151 0 -285.5 57t-229 154t-149.5 230t-55 280zM186 682q0 -170 75.5 -311t215 -224.5t314.5 -83.5q176 0 316 83.5 t216 224.5t76 311t-76 311t-216 224t-316 83q-131 0 -245 -48.5t-192.5 -132t-123 -197t-44.5 -240.5zM567 365v641h273q108 0 159.5 -47.5t51.5 -131.5v-8q0 -121 -117 -143q58 -7 88.5 -46.5t30.5 -90.5v-64q0 -37 37 -45v-72h-58q-61 0 -86.5 24t-25.5 83v74q0 90 -91 90 h-129v-264h-133zM700 717h123q95 0 95 88v16q0 80 -84 80h-134v-184z" />
<glyph unicode="&#xaf;" horiz-adv-x="675" d="M43 1192v139h590v-139h-590z" />
<glyph unicode="&#xb0;" horiz-adv-x="741" d="M70 1112q0 118 85.5 204.5t215.5 86.5t215.5 -86.5t85.5 -204.5q0 -119 -85.5 -206t-215.5 -87t-215.5 87t-85.5 206zM225 1112q0 -72 39 -117t107 -45t106.5 45t38.5 117q0 71 -38.5 114.5t-106.5 43.5t-107 -44t-39 -114z" />
<glyph unicode="&#xb1;" horiz-adv-x="1054" d="M57 0v979h940v-979h-940zM162 100h731v779h-731v-779z" />
<glyph unicode="&#xb4;" horiz-adv-x="466" d="M115 1122l98 297h219l-188 -297h-129z" />
<glyph unicode="&#xb6;" horiz-adv-x="1413" d="M92 842v28q0 221 156 357.5t407 136.5h615v-1694h-174v1526h-164v-1526h-174v682h-103q-251 0 -407 135.5t-156 354.5zM461 760q0 -104 59 -161.5t172 -57.5h66v655h-66q-113 0 -172 -56.5t-59 -160.5v-219z" />
<glyph unicode="&#xb7;" horiz-adv-x="428" d="M113 561v240h202v-240h-202z" />
<glyph unicode="&#xb8;" horiz-adv-x="514" d="M45 -219l209 268l72 -55l-123 -152q36 23 96 23q91 0 140.5 -54t49.5 -139q0 -86 -61 -140t-162 -54q-58 0 -104 22v74h67q54 0 82.5 21t28.5 59v49q0 37 -26.5 59.5t-75.5 22.5q-64 0 -121 -57z" />
<glyph unicode="&#xba;" horiz-adv-x="784" d="M82 924v176q0 131 88 210t221 79q135 0 223 -79t88 -210v-176q0 -130 -88.5 -209.5t-222.5 -79.5q-133 0 -221 79.5t-88 209.5zM248 915q0 -72 37.5 -107.5t105.5 -35.5t107 37.5t39 105.5v191q0 69 -39 107t-107 38q-67 0 -105 -37.5t-38 -107.5v-191z" />
<glyph unicode="&#xbb;" horiz-adv-x="1038" d="M94 0q0 119 65.5 233t176.5 175q-111 61 -176.5 175.5t-65.5 233.5h117q32 -111 121.5 -208t208.5 -126v-149q-119 -29 -208.5 -126t-121.5 -208h-117zM524 0q0 119 65.5 233t176.5 175q-111 61 -176.5 175.5t-65.5 233.5h117q32 -111 121.5 -208t208.5 -126v-149 q-119 -29 -208.5 -126t-121.5 -208h-117z" />
<glyph unicode="&#xbf;" horiz-adv-x="841" d="M-39 -76q0 69 22.5 126.5t58.5 97t79.5 74t87 65.5t79.5 63.5t58.5 75.5t22.5 94h172q0 -68 -20 -124.5t-51.5 -95.5t-70.5 -72.5t-77.5 -64.5t-70 -62.5t-51.5 -74.5t-20 -94q0 -94 56.5 -143t166.5 -49q103 0 162.5 62t59.5 171v31h206v-63q0 -161 -119.5 -273 t-312.5 -112q-109 0 -194.5 30t-138 81.5t-79 116.5t-26.5 140zM358 721v237h203v-237h-203z" />
<glyph unicode="&#xc0;" horiz-adv-x="1177" d="M18 0l455 1364h225l461 -1364h-233l-111 348h-463l-106 -348h-228zM408 1653h157l68 -207h-92zM410 530h346l-176 547z" />
<glyph unicode="&#xc1;" horiz-adv-x="1177" d="M18 0l455 1364h225l461 -1364h-233l-111 348h-463l-106 -348h-228zM410 530h346l-176 547zM557 1446l70 207h153l-133 -207h-90z" />
<glyph unicode="&#xc2;" horiz-adv-x="1177" d="M18 0l455 1364h225l461 -1364h-233l-111 348h-463l-106 -348h-228zM360 1456v43q111 0 154 143h137q43 -143 154 -143v-43q-42 -10 -76 -10q-53 0 -93.5 35.5t-55.5 93.5q-15 -58 -57 -93.5t-97 -35.5q-28 0 -66 10zM410 530h346l-176 547z" />
<glyph unicode="&#xc3;" horiz-adv-x="1177" d="M18 0l455 1364h225l461 -1364h-233l-111 348h-463l-106 -348h-228zM360 1507q0 57 31.5 90t91.5 33q47 0 124 -44t95 -44q33 0 33 41v47h70q20 -36 20 -63q0 -57 -32.5 -90t-92.5 -33q-35 0 -79.5 22t-82 44t-55.5 22q-30 0 -30 -41v-47h-70q-23 34 -23 63zM410 530h346 l-176 547z" />
<glyph unicode="&#xc4;" horiz-adv-x="1177" d="M18 0l455 1364h225l461 -1364h-233l-111 348h-463l-106 -348h-228zM305 1513v191h189v-191h-189zM410 530h346l-176 547zM639 1513v191h188v-191h-188z" />
<glyph unicode="&#xc5;" horiz-adv-x="1175" d="M18 0l455 1364h45q-63 20 -101 71t-38 113q0 80 58.5 138.5t148.5 58.5t147.5 -58t57.5 -139q0 -62 -38 -113t-100 -71h45l461 -1364h-233l-111 348h-463l-106 -348h-228zM410 530h346l-176 547zM487 1548q0 -45 26.5 -73.5t72.5 -28.5t72 28.5t26 73.5q0 48 -26 76.5 t-72 28.5q-47 0 -73 -28.5t-26 -76.5z" />
<glyph unicode="&#xc6;" horiz-adv-x="1746" d="M8 0l735 1364h924v-201h-637v-356h471v-189h-471v-417h637v-201h-862v348h-385l-182 -348h-230zM518 532h287v560z" />
<glyph unicode="&#xc7;" horiz-adv-x="1210" d="M109 473v414q0 84 21.5 160t65.5 141t107.5 113t151.5 75t192 27q220 0 353 -120.5t133 -297.5v-94h-224v76q0 113 -69 175t-193 62q-151 0 -231 -83t-80 -220v-442q0 -134 81.5 -216.5t233.5 -82.5q123 0 188.5 62.5t65.5 176.5v76h223v-94q0 -173 -124.5 -293 t-337.5 -127l-97 -119q36 23 97 23q91 0 140.5 -54t49.5 -139q0 -86 -61 -140t-162 -54q-59 0 -105 22v74h68q54 0 82.5 21t28.5 59v49q0 37 -27 59.5t-76 22.5q-64 0 -121 -57l-71 53l143 184q-215 27 -330.5 168t-115.5 340z" />
<glyph unicode="&#xc8;" horiz-adv-x="1089" d="M145 0v1364h863v-201h-637v-356h471v-189h-471v-417h637v-201h-863zM408 1653h157l68 -207h-92z" />
<glyph unicode="&#xc9;" horiz-adv-x="1089" d="M145 0v1364h863v-201h-637v-356h471v-189h-471v-417h637v-201h-863zM537 1446l69 207h154l-133 -207h-90z" />
<glyph unicode="&#xca;" horiz-adv-x="1089" d="M145 0v1364h863v-201h-637v-356h471v-189h-471v-417h637v-201h-863zM346 1456v43q111 0 154 143h137q43 -143 154 -143v-43q-42 -10 -76 -10q-53 0 -94 35.5t-56 93.5q-15 -58 -56.5 -93.5t-96.5 -35.5q-28 0 -66 10z" />
<glyph unicode="&#xcb;" horiz-adv-x="1089" d="M145 0v1364h863v-201h-637v-356h471v-189h-471v-417h637v-201h-863zM307 1513v191h189v-191h-189zM641 1513v191h188v-191h-188z" />
<glyph unicode="&#xcc;" horiz-adv-x="516" d="M80 1653h158l67 -207h-92zM145 0v1364h226v-1364h-226z" />
<glyph unicode="&#xcd;" horiz-adv-x="516" d="M145 0v1364h226v-1364h-226zM217 1446l70 207h153l-133 -207h-90z" />
<glyph unicode="&#xce;" horiz-adv-x="516" d="M-59 1481v59q75 0 131 52t86 155h196q30 -102 87 -154.5t132 -52.5v-59q-56 -17 -106 -17q-76 0 -134.5 51.5t-80.5 133.5q-22 -81 -81.5 -133t-137.5 -52q-39 0 -92 17zM145 0v1364h226v-1364h-226z" />
<glyph unicode="&#xcf;" horiz-adv-x="516" d="M-8 1513v191h188v-191h-188zM145 0v1364h226v-1364h-226zM326 1513v191h188v-191h-188z" />
<glyph unicode="&#xd0;" horiz-adv-x="1386" d="M39 594v182h215v588h508q124 0 223 -36.5t162 -100.5t96 -148t33 -182v-430q0 -98 -33 -182t-96 -148t-162 -100.5t-223 -36.5h-508v594h-215zM479 201h269q147 0 225 75.5t78 206.5v396q0 133 -78 208.5t-225 75.5h-269v-387h254v-182h-254v-393z" />
<glyph unicode="&#xd1;" horiz-adv-x="1316" d="M145 0v1364h187l502 -752l120 -192v944h217v-1364h-167l-517 741l-125 195v-936h-217zM319 1577q0 80 44.5 127t130.5 47q51 0 115 -31.5t118 -62.5t80 -31q47 0 47 57v70h98q29 -49 29 -92q0 -80 -45 -127t-131 -47q-50 0 -113.5 31.5t-117.5 62.5t-80 31q-45 0 -45 -58 v-69h-99q-31 47 -31 92z" />
<glyph unicode="&#xd2;" d="M109 471v422q0 107 34 198.5t99 161.5t167 110t230 40t229.5 -40t166 -110t98.5 -161.5t34 -198.5v-422q0 -106 -34 -197.5t-98.5 -162t-166 -110.5t-229.5 -40t-230 40.5t-167 110.5t-99 161.5t-34 197.5zM338 463q0 -134 78 -218.5t223 -84.5t223 84.5t78 218.5v438 q0 135 -78 219t-223 84t-223 -84t-78 -219v-438zM455 1653h157l68 -207h-92z" />
<glyph unicode="&#xd3;" d="M109 471v422q0 107 34 198.5t99 161.5t167 110t230 40t229.5 -40t166 -110t98.5 -161.5t34 -198.5v-422q0 -106 -34 -197.5t-98.5 -162t-166 -110.5t-229.5 -40t-230 40.5t-167 110.5t-99 161.5t-34 197.5zM338 463q0 -134 78 -218.5t223 -84.5t223 84.5t78 218.5v438 q0 135 -78 219t-223 84t-223 -84t-78 -219v-438zM598 1446l70 207h153l-133 -207h-90z" />
<glyph unicode="&#xd4;" d="M109 471v422q0 107 34 198.5t99 161.5t167 110t230 40t229.5 -40t166 -110t98.5 -161.5t34 -198.5v-422q0 -106 -34 -197.5t-98.5 -162t-166 -110.5t-229.5 -40t-230 40.5t-167 110.5t-99 161.5t-34 197.5zM338 463q0 -134 78 -218.5t223 -84.5t223 84.5t78 218.5v438 q0 135 -78 219t-223 84t-223 -84t-78 -219v-438zM422 1456v43q110 0 153 143h138q43 -143 153 -143v-43q-42 -10 -75 -10q-53 0 -94 35.5t-56 93.5q-15 -58 -57 -93.5t-97 -35.5q-27 0 -65 10z" />
<glyph unicode="&#xd5;" d="M109 471v422q0 107 34 198.5t99 161.5t167 110t230 40t229.5 -40t166 -110t98.5 -161.5t34 -198.5v-422q0 -106 -34 -197.5t-98.5 -162t-166 -110.5t-229.5 -40t-230 40.5t-167 110.5t-99 161.5t-34 197.5zM338 463q0 -134 78 -218.5t223 -84.5t223 84.5t78 218.5v438 q0 135 -78 219t-223 84t-223 -84t-78 -219v-438zM422 1507q0 57 31.5 90t91.5 33q47 0 124 -44t95 -44q33 0 33 41v47h69q21 -38 21 -63q0 -57 -32.5 -90t-92.5 -33q-35 0 -79.5 22t-82 44t-55.5 22q-31 0 -31 -41v-47h-70q-22 33 -22 63z" />
<glyph unicode="&#xd6;" d="M109 471v422q0 107 34 198.5t99 161.5t167 110t230 40t229.5 -40t166 -110t98.5 -161.5t34 -198.5v-422q0 -106 -34 -197.5t-98.5 -162t-166 -110.5t-229.5 -40t-230 40.5t-167 110.5t-99 161.5t-34 197.5zM338 463q0 -134 78 -218.5t223 -84.5t223 84.5t78 218.5v438 q0 135 -78 219t-223 84t-223 -84t-78 -219v-438zM379 1520v190h188v-190h-188zM713 1520v190h188v-190h-188z" />
<glyph unicode="&#xd7;" horiz-adv-x="897" d="M109 475l217 213l-217 217l127 123l215 -215l213 215l124 -121l-217 -215l217 -215l-126 -125l-216 217l-213 -217z" />
<glyph unicode="&#xd8;" d="M68 23l118 161q-77 124 -77 287v422q0 107 34 198.5t99 161.5t167 110t230 40q221 0 358 -115l105 142l106 -89q-55 -75 -118 -159q77 -124 77 -289v-422q0 -106 -34 -197.5t-98.5 -162t-166 -110.5t-229.5 -40q-221 0 -358 115l-105 -142zM338 463q0 -36 6 -66l524 715 q-79 92 -229 92q-145 0 -223 -84t-78 -219v-438zM410 252q79 -92 229 -92q145 0 223 84.5t78 218.5v438q0 36 -6 66q0 1 -131 -178l-262 -358z" />
<glyph unicode="&#xd9;" horiz-adv-x="1298" d="M137 414v950h230v-938q0 -129 71 -199.5t213 -70.5q144 0 213.5 70t69.5 200v938h227v-950q0 -206 -137 -329.5t-377 -123.5q-237 0 -373.5 122.5t-136.5 330.5zM469 1653h158l67 -207h-92z" />
<glyph unicode="&#xda;" horiz-adv-x="1298" d="M137 414v950h230v-938q0 -129 71 -199.5t213 -70.5q144 0 213.5 70t69.5 200v938h227v-950q0 -206 -137 -329.5t-377 -123.5q-237 0 -373.5 122.5t-136.5 330.5zM618 1446l70 207h154l-133 -207h-91z" />
<glyph unicode="&#xdb;" horiz-adv-x="1298" d="M137 414v950h230v-938q0 -129 71 -199.5t213 -70.5q144 0 213.5 70t69.5 200v938h227v-950q0 -206 -137 -329.5t-377 -123.5q-237 0 -373.5 122.5t-136.5 330.5zM346 1481v59q75 0 131 52t86 155h197q30 -102 87 -154.5t132 -52.5v-59q-56 -17 -107 -17 q-76 0 -134.5 51.5t-80.5 133.5q-22 -81 -81.5 -133t-137.5 -52q-39 0 -92 17z" />
<glyph unicode="&#xdc;" horiz-adv-x="1298" d="M137 414v950h230v-938q0 -129 71 -199.5t213 -70.5q144 0 213.5 70t69.5 200v938h227v-950q0 -206 -137 -329.5t-377 -123.5q-237 0 -373.5 122.5t-136.5 330.5zM395 1509v191h189v-191h-189zM729 1509v191h189v-191h-189z" />
<glyph unicode="&#xdd;" horiz-adv-x="1136" d="M-2 1364h254l330 -627l321 627h240l-455 -813v-551h-227v551zM557 1446l70 207h153l-133 -207h-90z" />
<glyph unicode="&#xde;" horiz-adv-x="1171" d="M145 0v1364h226v-236h305q218 0 321 -97.5t103 -266.5v-107q0 -170 -103 -268t-321 -98h-305v-291h-226zM371 479h319q96 0 138 45.5t42 128.5v111q0 176 -184 176h-315v-461z" />
<glyph unicode="&#xdf;" horiz-adv-x="1036" d="M137 0v969q0 183 99 292t288 109q188 0 286.5 -95t98.5 -235v-49q0 -91 -42.5 -161t-127.5 -99q108 -31 154.5 -97t46.5 -171v-162q0 -147 -91.5 -232t-246.5 -85q-31 0 -67 7.5t-52 18.5v86q136 0 192 47t56 138v213q0 76 -57.5 116t-184.5 43v119q213 8 213 164v98 q0 81 -45.5 127.5t-128.5 46.5q-89 0 -135.5 -55.5t-46.5 -155.5v-997h-209z" />
<glyph unicode="&#xe0;" horiz-adv-x="999" d="M80 252v10q0 89 48 152t132.5 95t185.5 43.5t220 4.5v96q0 77 -43 119.5t-125 42.5q-189 0 -189 -143v-4h-182v10q0 129 96.5 215t268.5 86q191 0 280.5 -97.5t89.5 -265.5v-417q0 -35 19 -50.5t65 -15.5v-149h-69q-73 0 -118 35t-44 114q-57 -70 -143 -109.5t-183 -39.5 q-139 0 -224 72.5t-85 195.5zM279 262q0 -51 40 -86t107 -35q90 0 165 49t75 121v121q-387 24 -387 -164v-6zM307 1262h158l67 -207h-92z" />
<glyph unicode="&#xe1;" horiz-adv-x="999" d="M80 252v10q0 89 48 152t132.5 95t185.5 43.5t220 4.5v96q0 77 -43 119.5t-125 42.5q-189 0 -189 -143v-4h-182v10q0 129 96.5 215t268.5 86q191 0 280.5 -97.5t89.5 -265.5v-417q0 -35 19 -50.5t65 -15.5v-149h-69q-73 0 -118 35t-44 114q-57 -70 -143 -109.5t-183 -39.5 q-139 0 -224 72.5t-85 195.5zM279 262q0 -51 40 -86t107 -35q90 0 165 49t75 121v121q-387 24 -387 -164v-6zM451 1055l69 207h154l-133 -207h-90z" />
<glyph unicode="&#xe2;" horiz-adv-x="999" d="M80 252v10q0 89 48 152t132.5 95t185.5 43.5t220 4.5v96q0 77 -43 119.5t-125 42.5q-189 0 -189 -143v-4h-182v10q0 129 96.5 215t268.5 86q191 0 280.5 -97.5t89.5 -265.5v-417q0 -35 19 -50.5t65 -15.5v-149h-69q-73 0 -118 35t-44 114q-57 -70 -143 -109.5t-183 -39.5 q-139 0 -224 72.5t-85 195.5zM279 262q0 -51 40 -86t107 -35q90 0 165 49t75 121v121q-387 24 -387 -164v-6zM279 1069v43q110 0 153 143h137q43 -143 154 -143v-43q-42 -10 -76 -10q-53 0 -93.5 35.5t-55.5 93.5q-15 -58 -57 -93.5t-97 -35.5q-27 0 -65 10z" />
<glyph unicode="&#xe3;" horiz-adv-x="999" d="M80 252v10q0 89 48 152t132.5 95t185.5 43.5t220 4.5v96q0 77 -43 119.5t-125 42.5q-189 0 -189 -143v-4h-182v10q0 129 96.5 215t268.5 86q191 0 280.5 -97.5t89.5 -265.5v-417q0 -35 19 -50.5t65 -15.5v-149h-69q-73 0 -118 35t-44 114q-57 -70 -143 -109.5t-183 -39.5 q-139 0 -224 72.5t-85 195.5zM268 1116q0 57 31.5 90t91.5 33q47 0 124 -44t95 -44q33 0 33 41v47h70q20 -36 20 -63q0 -57 -32.5 -90t-92.5 -33q-35 0 -79.5 22t-82 44t-55.5 22q-31 0 -31 -41v-47h-69q-23 35 -23 63zM279 262q0 -51 40 -86t107 -35q90 0 165 49t75 121 v121q-387 24 -387 -164v-6z" />
<glyph unicode="&#xe4;" horiz-adv-x="999" d="M80 252v10q0 89 48 152t132.5 95t185.5 43.5t220 4.5v96q0 77 -43 119.5t-125 42.5q-189 0 -189 -143v-4h-182v10q0 129 96.5 215t268.5 86q191 0 280.5 -97.5t89.5 -265.5v-417q0 -35 19 -50.5t65 -15.5v-149h-69q-73 0 -118 35t-44 114q-57 -70 -143 -109.5t-183 -39.5 q-139 0 -224 72.5t-85 195.5zM221 1174v190h189v-190h-189zM279 262q0 -51 40 -86t107 -35q90 0 165 49t75 121v121q-387 24 -387 -164v-6zM555 1174v190h188v-190h-188z" />
<glyph unicode="&#xe5;" horiz-adv-x="999" />
<glyph unicode="&#xe6;" horiz-adv-x="1542" d="M80 250v10q0 72 32 127t86.5 89t130.5 54.5t159.5 26.5t177.5 0v96q0 74 -44 118t-124 44q-189 0 -189 -143v-4h-182v10q0 129 96.5 215t268.5 86q110 0 174 -35.5t106 -107.5q104 145 309 145q170 0 272.5 -109.5t102.5 -285.5v-119h-594v-129q0 -88 59 -141.5 t160 -53.5q90 0 141.5 44t51.5 110v20h182v-4q0 -151 -110.5 -240t-276.5 -89q-232 0 -332 166q-62 -79 -154.5 -122.5t-191.5 -43.5q-140 0 -225.5 71.5t-85.5 194.5zM281 260q0 -52 39.5 -86.5t107.5 -34.5q90 0 164 49.5t74 122.5v123q-385 18 -385 -168v-6zM864 575h404 v62q0 77 -56 130.5t-147 53.5q-93 0 -147 -52t-54 -132v-62z" />
<glyph unicode="&#xe7;" horiz-adv-x="960" d="M98 375v207q0 178 114 287.5t296 109.5q169 0 273 -92t104 -258v-6h-183v24q0 75 -53 122.5t-139 47.5q-96 0 -153.5 -58.5t-57.5 -160.5v-231q0 -106 57.5 -164t153.5 -58q83 0 137.5 47.5t54.5 124.5v25h183v-8q0 -161 -100.5 -253t-260.5 -97l-114 -142q36 23 96 23 q91 0 140.5 -54t49.5 -139q0 -86 -61 -140t-162 -54q-58 0 -104 22v74h67q54 0 82.5 21t28.5 59v49q0 37 -27 59.5t-76 22.5q-63 0 -120 -57l-72 53l164 211q-147 25 -232.5 127t-85.5 256z" />
<glyph unicode="&#xe8;" horiz-adv-x="974" d="M98 369v219q0 175 108 283t294 108q185 0 288 -107.5t103 -285.5v-119h-592v-131q0 -86 58 -139.5t159 -53.5q90 0 141.5 44t51.5 110v20h182v-4q0 -151 -110.5 -240t-276.5 -89q-185 0 -295.5 104t-110.5 281zM299 573h403v62q0 79 -54.5 131.5t-145.5 52.5 q-93 0 -148 -51.5t-55 -132.5v-62zM324 1262h157l68 -207h-92z" />
<glyph unicode="&#xe9;" horiz-adv-x="974" d="M98 369v219q0 175 108 283t294 108q185 0 288 -107.5t103 -285.5v-119h-592v-131q0 -86 58 -139.5t159 -53.5q90 0 141.5 44t51.5 110v20h182v-4q0 -151 -110.5 -240t-276.5 -89q-185 0 -295.5 104t-110.5 281zM299 573h403v62q0 79 -54.5 131.5t-145.5 52.5 q-93 0 -148 -51.5t-55 -132.5v-62zM465 1055l70 207h153l-133 -207h-90z" />
<glyph unicode="&#xea;" horiz-adv-x="974" d="M98 369v219q0 175 108 283t294 108q185 0 288 -107.5t103 -285.5v-119h-592v-131q0 -86 58 -139.5t159 -53.5q90 0 141.5 44t51.5 110v20h182v-4q0 -151 -110.5 -240t-276.5 -89q-185 0 -295.5 104t-110.5 281zM279 1069v43q110 0 153 143h137q43 -143 154 -143v-43 q-42 -10 -76 -10q-53 0 -93.5 35.5t-55.5 93.5q-15 -58 -57 -93.5t-97 -35.5q-27 0 -65 10zM299 573h403v62q0 79 -54.5 131.5t-145.5 52.5q-93 0 -148 -51.5t-55 -132.5v-62z" />
<glyph unicode="&#xeb;" horiz-adv-x="974" d="M98 369v219q0 175 108 283t294 108q185 0 288 -107.5t103 -285.5v-119h-592v-131q0 -86 58 -139.5t159 -53.5q90 0 141.5 44t51.5 110v20h182v-4q0 -151 -110.5 -240t-276.5 -89q-185 0 -295.5 104t-110.5 281zM231 1174v190h189v-190h-189zM299 573h403v62 q0 79 -54.5 131.5t-145.5 52.5q-93 0 -148 -51.5t-55 -132.5v-62zM565 1174v190h189v-190h-189z" />
<glyph unicode="&#xec;" horiz-adv-x="471" d="M49 1262h158l67 -207h-92zM131 0v958h209v-958h-209z" />
<glyph unicode="&#xed;" horiz-adv-x="471" d="M131 0v958h209v-958h-209zM203 1055l69 207h154l-133 -207h-90z" />
<glyph unicode="&#xee;" horiz-adv-x="471" />
<glyph unicode="&#xef;" horiz-adv-x="471" />
<glyph unicode="&#xf0;" horiz-adv-x="1013" d="M96 362v259q0 150 103 248t250 98q86 0 148 -29t114 -90q-9 139 -119 266l-156 -63l-37 98l115 47q-89 82 -225 162v6h260q70 -43 135 -98l137 57l37 -96l-96 -41q158 -186 158 -441v-350q0 -193 -113 -302t-299 -109q-177 0 -294.5 102.5t-117.5 275.5zM301 340 q0 -86 56.5 -141.5t150.5 -55.5q93 0 150 55.5t57 141.5v250q0 101 -55 160t-152 59q-100 0 -153.5 -55t-53.5 -166v-248z" />
<glyph unicode="&#xf1;" horiz-adv-x="1069" d="M131 0v958h176l10 -247q114 268 332 268q141 0 219 -88.5t78 -233.5v-657h-209v647q0 85 -41 130.5t-118 45.5q-64 0 -121 -51t-87 -119t-30 -127v-526h-209zM186 1241q0 80 44.5 127t129.5 47q51 0 115.5 -31.5t118.5 -62.5t80 -31q47 0 47 58v69h98q29 -49 29 -92 q0 -80 -45 -127t-131 -47q-50 0 -114 31.5t-118 62.5t-80 31q-45 0 -45 -57v-70h-98q-31 47 -31 92z" />
<glyph unicode="&#xf2;" horiz-adv-x="1013" d="M98 375v209q0 182 113 288.5t297 106.5q182 0 294.5 -106.5t112.5 -288.5v-209q0 -182 -112 -286.5t-295 -104.5q-184 0 -297 104.5t-113 286.5zM301 356q0 -99 54 -156t153 -57q97 0 151 57t54 156v250q0 98 -54 155.5t-151 57.5q-98 0 -152.5 -57.5t-54.5 -155.5v-250z M328 1262h157l68 -207h-92z" />
<glyph unicode="&#xf3;" horiz-adv-x="1013" d="M98 375v209q0 182 113 288.5t297 106.5q182 0 294.5 -106.5t112.5 -288.5v-209q0 -182 -112 -286.5t-295 -104.5q-184 0 -297 104.5t-113 286.5zM301 356q0 -99 54 -156t153 -57q97 0 151 57t54 156v250q0 98 -54 155.5t-151 57.5q-98 0 -152.5 -57.5t-54.5 -155.5v-250z M467 1055l70 207h153l-133 -207h-90z" />
<glyph unicode="&#xf4;" horiz-adv-x="1013" d="M98 375v209q0 182 113 288.5t297 106.5q182 0 294.5 -106.5t112.5 -288.5v-209q0 -182 -112 -286.5t-295 -104.5q-184 0 -297 104.5t-113 286.5zM293 1069v43q110 0 153 143h138q43 -143 153 -143v-43q-42 -10 -75 -10q-53 0 -94 35.5t-56 93.5q-15 -58 -57 -93.5 t-97 -35.5q-27 0 -65 10zM301 356q0 -99 54 -156t153 -57q97 0 151 57t54 156v250q0 98 -54 155.5t-151 57.5q-98 0 -152.5 -57.5t-54.5 -155.5v-250z" />
<glyph unicode="&#xf5;" horiz-adv-x="1013" d="M98 375v209q0 182 113 288.5t297 106.5q182 0 294.5 -106.5t112.5 -288.5v-209q0 -182 -112 -286.5t-295 -104.5q-184 0 -297 104.5t-113 286.5zM289 1116q0 57 31.5 90t91.5 33q47 0 124 -44t95 -44q33 0 33 41v47h69q21 -38 21 -63q0 -57 -32.5 -90t-92.5 -33 q-35 0 -79.5 22t-82 44t-55.5 22q-31 0 -31 -41v-47h-70q-22 33 -22 63zM301 356q0 -99 54 -156t153 -57q97 0 151 57t54 156v250q0 98 -54 155.5t-151 57.5q-98 0 -152.5 -57.5t-54.5 -155.5v-250z" />
<glyph unicode="&#xf6;" horiz-adv-x="1013" d="M98 375v209q0 182 113 288.5t297 106.5q182 0 294.5 -106.5t112.5 -288.5v-209q0 -182 -112 -286.5t-295 -104.5q-184 0 -297 104.5t-113 286.5zM248 1174v190h188v-190h-188zM301 356q0 -99 54 -156t153 -57q97 0 151 57t54 156v250q0 98 -54 155.5t-151 57.5 q-98 0 -152.5 -57.5t-54.5 -155.5v-250zM582 1174v190h188v-190h-188z" />
<glyph unicode="&#xf8;" horiz-adv-x="1013" d="M72 4l100 129q-74 96 -74 242v209q0 182 113 288.5t297 106.5q155 0 262 -80l96 123l80 -66q-49 -61 -102 -131q71 -99 71 -241v-209q0 -182 -112 -286.5t-295 -104.5q-158 0 -264 77l-94 -120zM301 356q0 -17 4 -53l357 457q-56 59 -154 59t-152.5 -57.5t-54.5 -155.5 v-250zM354 201q55 -58 154 -58q97 0 151 57t54 156v250q0 19 -4 47q0 1 -88.5 -112t-177.5 -227z" />
<glyph unicode="&#xf9;" horiz-adv-x="1067" d="M129 303v655h209v-643q0 -84 44 -130t122 -46q48 0 92.5 29t74 72.5t47 93t17.5 92.5v532h209v-958h-176l-10 219q-103 -235 -324 -235q-148 0 -226.5 86t-78.5 233zM348 1262h158l67 -207h-92z" />
<glyph unicode="&#xfa;" horiz-adv-x="1067" d="M129 303v655h209v-643q0 -84 44 -130t122 -46q48 0 92.5 29t74 72.5t47 93t17.5 92.5v532h209v-958h-176l-10 219q-103 -235 -324 -235q-148 0 -226.5 86t-78.5 233zM492 1055l69 207h154l-133 -207h-90z" />
<glyph unicode="&#xfb;" horiz-adv-x="1067" d="M129 303v655h209v-643q0 -84 44 -130t122 -46q48 0 92.5 29t74 72.5t47 93t17.5 92.5v532h209v-958h-176l-10 219q-103 -235 -324 -235q-148 0 -226.5 86t-78.5 233zM219 1145v59q75 0 131 52t86 155h197q30 -102 87 -154.5t132 -52.5v-59q-56 -17 -107 -17 q-76 0 -134.5 51.5t-80.5 133.5q-22 -81 -81.5 -133t-137.5 -52q-39 0 -92 17z" />
<glyph unicode="&#xfc;" horiz-adv-x="1067" d="M129 303v655h209v-643q0 -84 44 -130t122 -46q48 0 92.5 29t74 72.5t47 93t17.5 92.5v532h209v-958h-176l-10 219q-103 -235 -324 -235q-148 0 -226.5 86t-78.5 233zM276 1174v190h189v-190h-189zM610 1174v190h189v-190h-189z" />
<glyph unicode="&#xfd;" horiz-adv-x="927" d="M20 958h211l164 -516l70 -225l67 225l162 516h211l-332 -944q-19 -48 -32.5 -79t-31.5 -67.5t-34 -58.5t-37.5 -46t-44.5 -37.5t-52.5 -25.5t-64.5 -17t-77 -5h-84v150h69q53 0 86 12.5t49.5 34.5t32.5 62l17 49zM442 1055l70 207h154l-134 -207h-90z" />
<glyph unicode="&#xfe;" horiz-adv-x="1046" d="M131 -315v1679h205v-526q59 74 129 107.5t172 33.5q132 0 222.5 -100t90.5 -246v-303q0 -145 -94 -246.5t-225 -101.5q-100 0 -168 30.5t-127 100.5v-428h-205zM338 362q0 -101 59 -160t150 -59q96 0 148.5 58t52.5 172v215q0 115 -52.5 172t-148.5 57q-94 0 -151.5 -61 t-57.5 -164v-230z" />
<glyph unicode="&#xff;" horiz-adv-x="927" d="M20 958h211l164 -516l70 -225l67 225l162 516h211l-332 -944q-19 -48 -32.5 -79t-31.5 -67.5t-34 -58.5t-37.5 -46t-44.5 -37.5t-52.5 -25.5t-64.5 -17t-77 -5h-84v150h69q53 0 86 12.5t49.5 34.5t32.5 62l17 49zM205 1174v190h188v-190h-188zM539 1174v190h188v-190 h-188z" />
<glyph unicode="&#x2000;" horiz-adv-x="876" />
<glyph unicode="&#x2001;" horiz-adv-x="1753" />
<glyph unicode="&#x2002;" horiz-adv-x="876" />
<glyph unicode="&#x2003;" horiz-adv-x="1753" />
<glyph unicode="&#x2004;" horiz-adv-x="584" />
<glyph unicode="&#x2005;" horiz-adv-x="438" />
<glyph unicode="&#x2006;" horiz-adv-x="292" />
<glyph unicode="&#x2007;" horiz-adv-x="292" />
<glyph unicode="&#x2008;" horiz-adv-x="219" />
<glyph unicode="&#x2009;" horiz-adv-x="350" />
<glyph unicode="&#x200a;" horiz-adv-x="97" />
<glyph unicode="&#x2010;" horiz-adv-x="737" d="M92 528v177h553v-177h-553z" />
<glyph unicode="&#x2011;" horiz-adv-x="737" d="M92 528v177h553v-177h-553z" />
<glyph unicode="&#x2012;" horiz-adv-x="737" d="M92 528v177h553v-177h-553z" />
<glyph unicode="&#x2013;" horiz-adv-x="1208" d="M92 528v177h1024v-177h-1024z" />
<glyph unicode="&#x2014;" horiz-adv-x="2232" d="M92 528v177h2048v-177h-2048z" />
<glyph unicode="&#x202f;" horiz-adv-x="350" />
<glyph unicode="&#x205f;" horiz-adv-x="438" />
<glyph unicode="&#xe000;" horiz-adv-x="962" d="M0 0v963h963v-963h-963z" />
<glyph unicode="&#xfb01;" horiz-adv-x="1103" d="M55 793v157h150v64q0 165 82.5 260.5t244.5 95.5h82v-162h-59q-80 0 -114.5 -43t-34.5 -127v-88h194v-157h-186v-793h-209v793h-150zM764 0v958h209v-958h-209zM770 1124v195h197v-195h-197z" />
<glyph unicode="&#xfb02;" horiz-adv-x="1099" d="M55 793v157h150v64q0 165 82.5 260.5t244.5 95.5h82v-162h-59q-80 0 -114.5 -43t-34.5 -127v-88h194v-157h-186v-793h-209v793h-150zM764 0v1364h207v-1364h-207z" />
</font>
</defs>
</svg>
